<svg version="1.1" id="Layer_1" xmlns="http://www.w3.org/2000/svg" xmlns:xlink="http://www.w3.org/1999/xlink" x="0px" y="0px"
	 width="100%" viewBox="0 0 200 200" enable-background="new 0 0 200 200" xml:space="preserve">
<path fill="#F8F6F1" opacity="1.000000" stroke="none" 
	d="
M201.000000,20.000000 
	C201.000000,73.687561 201.000000,127.375122 200.531342,181.531158 
	C133.708450,181.999741 67.354225,181.999878 1.000000,182.000000 
	C1.000000,128.312439 1.000000,74.624878 1.451734,20.468676 
	C68.268982,20.000023 134.634491,20.000011 201.000000,20.000000 
M85.936165,42.255417 
	C85.603897,36.186378 85.271637,30.117342 84.546074,23.815292 
	C84.546074,23.815292 84.091232,23.769405 83.868935,23.471737 
	C83.599861,23.311440 83.388260,23.367723 82.290375,23.442560 
	C60.649395,23.630505 39.008606,23.846096 17.367355,23.994514 
	C6.840012,24.066713 6.839622,24.009884 6.877756,34.517979 
	C6.911464,43.806751 12.026194,48.892738 21.401463,48.946892 
	C34.222759,49.020950 47.044098,49.087761 59.879330,50.064030 
	C59.865627,59.327015 59.851929,68.590004 58.927151,77.973289 
	C46.334057,78.035591 33.740406,78.045959 21.148090,78.180687 
	C14.169841,78.255356 8.629096,81.233490 7.659368,86.963638 
	C6.731091,92.448853 7.729993,98.260201 8.161237,104.552742 
	C29.561844,125.989883 50.922821,147.467010 72.439423,168.787094 
	C74.133072,170.465256 76.904320,171.988220 79.184456,172.002213 
	C112.977875,172.209793 146.773026,172.194992 180.567535,172.124237 
	C189.938461,172.104630 194.938538,166.885849 194.983322,157.445038 
	C195.033081,146.957245 195.014969,136.469040 194.997726,125.981079 
	C194.950668,97.351143 194.888535,68.721230 194.987320,39.152882 
	C195.005600,35.826679 194.804184,32.480911 195.098221,29.179270 
	C195.459213,25.125671 194.120819,23.683815 189.860138,23.732862 
	C168.073212,23.983673 146.282257,23.859285 124.494087,24.035753 
	C113.173950,24.127438 114.759270,22.031572 114.729729,34.209232 
	C114.706146,43.929077 119.838646,48.870251 129.501312,48.933952 
	C142.971207,49.022758 156.441208,49.094013 169.921219,50.088413 
	C169.921219,82.300316 169.921219,114.512215 169.921219,146.741760 
	C168.347946,146.929932 167.532654,147.112228 166.717270,147.112671 
	C140.750198,147.126862 114.782631,147.188248 88.816986,146.994446 
	C86.830856,146.979630 84.450478,145.559097 82.944473,144.085602 
	C71.644043,133.029129 60.490822,121.821388 49.357830,110.595238 
	C47.040131,108.258141 44.998474,105.647278 43.801304,103.154633 
	C57.513710,103.066254 71.226112,102.977875 85.669632,102.467110 
	C85.789078,98.177177 86.026993,93.886688 86.006516,89.597420 
	C85.935432,74.707474 85.774651,59.817947 85.724777,44.348747 
	C85.700554,43.960651 85.676338,43.572552 85.936165,42.255417 
z"/>
<path fill="#FFFFFF" opacity="1.000000" stroke="none" 
	d="
M201.000000,19.530624 
	C134.634491,20.000011 68.268982,20.000023 1.451734,20.000019 
	C1.000000,13.678367 1.000000,7.356733 1.000005,1.041175 
	C67.666679,1.047249 134.333359,1.047249 201.000000,1.047249 
	C201.000000,7.083416 201.000000,13.072332 201.000000,19.530624 
z"/>
<path fill="#FFFFFF" opacity="1.000000" stroke="none" 
	d="
M1.000000,182.469376 
	C67.354225,181.999878 133.708450,181.999741 200.531342,181.999817 
	C201.000000,188.321640 201.000000,194.643265 201.000000,200.958832 
	C134.333313,200.952744 67.666649,200.952744 1.000000,200.952744 
	C1.000000,194.916580 1.000000,188.927658 1.000000,182.469376 
z"/>
<path fill="#FB491D" opacity="1.000000" stroke="none" 
	d="
M42.829605,103.162582 
	C44.998474,105.647278 47.040131,108.258141 49.357830,110.595238 
	C60.490822,121.821388 71.644043,133.029129 82.944473,144.085602 
	C84.450478,145.559097 86.830856,146.979630 88.816986,146.994446 
	C114.782631,147.188248 140.750198,147.126862 166.717270,147.112671 
	C167.532654,147.112228 168.347946,146.929932 169.921219,146.741760 
	C169.921219,114.512215 169.921219,82.300316 170.384918,49.582062 
	C173.321793,49.050125 175.819565,48.788311 178.263580,49.042839 
	C185.885361,49.836590 191.287506,46.736027 194.832352,40.091309 
	C194.888535,68.721230 194.950668,97.351143 194.997726,125.981079 
	C195.014969,136.469040 195.033081,146.957245 194.983322,157.445038 
	C194.938538,166.885849 189.938461,172.104630 180.567535,172.124237 
	C146.773026,172.194992 112.977875,172.209793 79.184456,172.002213 
	C76.904320,171.988220 74.133072,170.465256 72.439423,168.787094 
	C50.922821,147.467010 29.561844,125.989883 8.358210,103.987549 
	C19.979990,103.335762 31.404799,103.249168 42.829605,103.162582 
z"/>
<path fill="#FBAB09" opacity="1.000000" stroke="none" 
	d="
M194.909836,39.622093 
	C191.287506,46.736027 185.885361,49.836590 178.263580,49.042839 
	C175.819565,48.788311 173.321793,49.050125 170.379883,49.124245 
	C156.441208,49.094013 142.971207,49.022758 129.501312,48.933952 
	C119.838646,48.870251 114.706146,43.929077 114.729729,34.209232 
	C114.759270,22.031572 113.173950,24.127438 124.494087,24.035753 
	C146.282257,23.859285 168.073212,23.983673 189.860138,23.732862 
	C194.120819,23.683815 195.459213,25.125671 195.098221,29.179270 
	C194.804184,32.480911 195.005600,35.826679 194.909836,39.622093 
z"/>
<path fill="#FBAB0A" opacity="1.000000" stroke="none" 
	d="
M59.865417,49.157677 
	C47.044098,49.087761 34.222759,49.020950 21.401463,48.946892 
	C12.026194,48.892738 6.911464,43.806751 6.877756,34.517979 
	C6.839622,24.009884 6.840012,24.066713 17.367355,23.994514 
	C39.008606,23.846096 60.649395,23.630505 82.880272,23.647041 
	C83.470169,23.851524 83.792259,23.899141 83.792259,23.899141 
	C83.792259,23.899141 84.091232,23.769405 84.091232,23.769405 
	C84.091232,23.769405 84.546074,23.815292 84.734283,24.394886 
	C84.405525,30.871006 83.888565,36.767536 83.173752,42.979698 
	C79.735275,47.516468 75.474663,49.307640 70.155670,49.034538 
	C66.736710,48.858997 63.296246,49.102180 59.865417,49.157677 
z"/>
<path fill="#FBAB08" opacity="1.000000" stroke="none" 
	d="
M43.315453,103.158607 
	C31.404799,103.249168 19.979990,103.335762 8.218527,103.675278 
	C7.729993,98.260201 6.731091,92.448853 7.659368,86.963638 
	C8.629096,81.233490 14.169841,78.255356 21.148090,78.180687 
	C33.740406,78.045959 46.334057,78.035591 59.857109,77.969254 
	C62.914959,77.993599 65.054840,78.180779 67.168549,78.021278 
	C74.129608,77.495987 80.169128,79.004173 84.253296,85.641861 
	C84.498154,91.648087 84.718338,97.268791 84.938522,102.889496 
	C71.226112,102.977875 57.513710,103.066254 43.315453,103.158607 
z"/>
<path fill="#FA491B" opacity="1.000000" stroke="none" 
	d="
M84.228615,85.256332 
	C80.169128,79.004173 74.129608,77.495987 67.168549,78.021278 
	C65.054840,78.180779 62.914959,77.993599 60.312649,77.909103 
	C59.851929,68.590004 59.865627,59.327015 59.872375,49.610855 
	C63.296246,49.102180 66.736710,48.858997 70.155670,49.034538 
	C75.474663,49.307640 79.735275,47.516468 83.450310,43.048630 
	C84.500526,42.929436 85.076324,43.056946 85.652122,43.184456 
	C85.676338,43.572552 85.700554,43.960651 85.453117,44.984085 
	C85.100288,54.070797 85.083817,62.523483 84.912720,70.973038 
	C84.816261,75.736801 84.465065,80.495407 84.228615,85.256332 
z"/>
<path fill="#E28560" opacity="1.000000" stroke="none" 
	d="
M84.253296,85.641861 
	C84.465065,80.495407 84.816261,75.736801 84.912720,70.973038 
	C85.083817,62.523483 85.100288,54.070797 85.414719,45.273842 
	C85.774651,59.817947 85.935432,74.707474 86.006516,89.597420 
	C86.026993,93.886688 85.789078,98.177177 85.304077,102.678299 
	C84.718338,97.268791 84.498154,91.648087 84.253296,85.641861 
z"/>
<path fill="#E28560" opacity="1.000000" stroke="none" 
	d="
M85.794144,42.719933 
	C85.076324,43.056946 84.500526,42.929436 83.648163,42.732994 
	C83.888565,36.767536 84.405525,30.871006 84.930931,24.511391 
	C85.271637,30.117342 85.603897,36.186378 85.794144,42.719933 
z"/>
<path fill="#E28560" opacity="1.000000" stroke="none" 
	d="
M83.980087,23.620571 
	C84.091232,23.769405 83.792259,23.899141 83.792259,23.899141 
	C83.792259,23.899141 83.470169,23.851524 83.352150,23.746056 
	C83.388260,23.367723 83.599861,23.311440 83.980087,23.620571 
z"/>
</svg>